<mxfile host="app.diagrams.net" agent="Mozilla/5.0 (Windows NT 10.0; Win64; x64) AppleWebKit/537.36 (KHTML, like Gecko) Chrome/135.0.0.0 Safari/537.36" version="26.1.1">
  <diagram name="Page-1" id="91lusZ1-ev4rsIsHz49U">
    <mxGraphModel dx="1690" dy="2147" grid="1" gridSize="10" guides="1" tooltips="1" connect="1" arrows="1" fold="1" page="1" pageScale="1" pageWidth="1169" pageHeight="827" math="0" shadow="0">
      <root>
        <mxCell id="0" />
        <mxCell id="1" parent="0" />
        <mxCell id="RAI1_YURqTMrV8CYVvPB-124" value="&lt;p&gt;&lt;br&gt;&lt;/p&gt;" style="text;html=1;align=center;verticalAlign=middle;resizable=0;points=[];autosize=1;strokeColor=none;fillColor=none;" parent="1" vertex="1">
          <mxGeometry x="-12" y="-1140" width="20" height="50" as="geometry" />
        </mxCell>
        <mxCell id="qXz1hzz-gRdCTcpQRCsA-3" style="edgeStyle=orthogonalEdgeStyle;rounded=0;orthogonalLoop=1;jettySize=auto;html=1;entryX=0;entryY=0.5;entryDx=0;entryDy=0;" edge="1" parent="1" source="nEp32tjHt73zQ5anizvY-6" target="nEp32tjHt73zQ5anizvY-7">
          <mxGeometry relative="1" as="geometry" />
        </mxCell>
        <mxCell id="qXz1hzz-gRdCTcpQRCsA-6" style="edgeStyle=orthogonalEdgeStyle;rounded=0;orthogonalLoop=1;jettySize=auto;html=1;entryX=0.5;entryY=0;entryDx=0;entryDy=0;" edge="1" parent="1" source="nEp32tjHt73zQ5anizvY-6" target="nEp32tjHt73zQ5anizvY-10">
          <mxGeometry relative="1" as="geometry" />
        </mxCell>
        <mxCell id="nEp32tjHt73zQ5anizvY-6" value="&lt;font style=&quot;font-size: 24px;&quot;&gt;S&lt;/font&gt;" style="ellipse;whiteSpace=wrap;html=1;aspect=fixed;" parent="1" vertex="1">
          <mxGeometry x="-550" y="-802" width="80" height="80" as="geometry" />
        </mxCell>
        <mxCell id="qXz1hzz-gRdCTcpQRCsA-4" style="edgeStyle=orthogonalEdgeStyle;rounded=0;orthogonalLoop=1;jettySize=auto;html=1;" edge="1" parent="1" source="nEp32tjHt73zQ5anizvY-7" target="nEp32tjHt73zQ5anizvY-8">
          <mxGeometry relative="1" as="geometry" />
        </mxCell>
        <mxCell id="nEp32tjHt73zQ5anizvY-7" value="&lt;font style=&quot;font-size: 24px;&quot;&gt;E&lt;/font&gt;" style="ellipse;whiteSpace=wrap;html=1;aspect=fixed;" parent="1" vertex="1">
          <mxGeometry x="-400" y="-802" width="80" height="80" as="geometry" />
        </mxCell>
        <mxCell id="qXz1hzz-gRdCTcpQRCsA-5" style="edgeStyle=orthogonalEdgeStyle;rounded=0;orthogonalLoop=1;jettySize=auto;html=1;" edge="1" parent="1" source="nEp32tjHt73zQ5anizvY-8" target="nEp32tjHt73zQ5anizvY-9">
          <mxGeometry relative="1" as="geometry" />
        </mxCell>
        <mxCell id="nEp32tjHt73zQ5anizvY-8" value="&lt;font style=&quot;font-size: 24px;&quot;&gt;I&lt;/font&gt;" style="ellipse;whiteSpace=wrap;html=1;aspect=fixed;" parent="1" vertex="1">
          <mxGeometry x="-250" y="-802" width="80" height="80" as="geometry" />
        </mxCell>
        <mxCell id="nEp32tjHt73zQ5anizvY-9" value="&lt;font style=&quot;font-size: 24px;&quot;&gt;R&lt;/font&gt;" style="ellipse;whiteSpace=wrap;html=1;aspect=fixed;" parent="1" vertex="1">
          <mxGeometry x="-100" y="-802" width="80" height="80" as="geometry" />
        </mxCell>
        <mxCell id="nEp32tjHt73zQ5anizvY-10" value="&lt;font style=&quot;font-size: 24px;&quot;&gt;V&lt;/font&gt;" style="ellipse;whiteSpace=wrap;html=1;aspect=fixed;" parent="1" vertex="1">
          <mxGeometry x="-550" y="-670" width="80" height="80" as="geometry" />
        </mxCell>
        <mxCell id="qXz1hzz-gRdCTcpQRCsA-9" value="" style="shape=image;verticalLabelPosition=bottom;labelBackgroundColor=default;verticalAlign=top;aspect=fixed;imageAspect=0;image=data:image/png,iVBORw0KGgoAAAANSUhEUgAAACQAAAAtCAYAAADGD8lQAAAAAXNSR0IArs4c6QAAAARnQU1BAACxjwv8YQUAAAAJcEhZcwAAEnQAABJ0Ad5mH3gAAAIeSURBVFhH7Zg9qgIxEMez3sArqI2VIGpnY6FH8Ax6AAtv4A2sbfQCVoKNWlgICoKVnsA75O1/Xkb2I9nI2/jxID8Ik01k89/JzCQYyBDxRRSU/Rq8IBtekA0vyMb/FXS73cRwOBSVSkUEQUCt2WyKxWKhfuEIVGoby+VSFotF2Wg05GazobHr9Sp7vR6qvByPxzTmAqug4/FIYsrlsrzf72r0F8xBEFpy7q9YBcErWHA+n6uROCyIPZeXTEHYKiwG7+jAtrEgeMsFmUE9m83I9vt9sklWqxXZcEtFrVajfm6UMC2YRtNtB2IGnsP8ZDJRo/kxCoIIFpQEYji2BoOBGnWDURC+GgsitRnEDIIbnkHmTadTNeMOo6AwbkgQ1xgIYY9hzFWaM3gf1TX1nILjI5ruyCQW6nqr4G36YF1ARtMZ/SRJ77mCyoxOENcfxImOaMC73rrCaDQK3xtnt9uRbbVaZLO4XC6ql5/tdqs/7Q+HA9lOp0P2HeDW0G63Q59rCOepmc6naMa52jJjlj0TH3ztiNYoV6QEPdLPIIgDHs3kwTykBHFKo+F44FMc4iAWmYc503UkLylB0QMTxY+f0dDHmK42uSImCF7gxV+5aBaxtN/v92RxvymVStR/NzFB5/OZbLfbJfsJYoLW6zXZer1O9iOorSPwiPaKdH6Wh4dOp5PqCVGtVlXv/fi/9Gx4QTa8IBtekA0vKBshfgDdnECymjNw3wAAAABJRU5ErkJggg==;clipPath=inset(0% 38.89% 0% 0%);" vertex="1" parent="1">
          <mxGeometry x="-450" y="-810" width="22" height="45" as="geometry" />
        </mxCell>
        <mxCell id="qXz1hzz-gRdCTcpQRCsA-10" value="" style="shape=image;verticalLabelPosition=bottom;labelBackgroundColor=default;verticalAlign=top;aspect=fixed;imageAspect=0;image=data:image/png,iVBORw0KGgoAAAANSUhEUgAAABcAAAAqCAYAAABYzsDTAAAAAXNSR0IArs4c6QAAAARnQU1BAACxjwv8YQUAAAAJcEhZcwAAEnQAABJ0Ad5mH3gAAAFNSURBVFhH7ZYxjoMwEACX+wBCPIH0NLwh8A8qvsAPkiI1P6CgDgUU1DQIJFp+AOIJHLuycwdsIKdTdDrJI1m7MvHYsdcIbZqBN/Eh4ltQchYlZ1FyFiVn+Vt50zRwvV7B8zw4nU6gaRrb0jQVI76B73OOvu8n13XxXf9S67pOjPyCldd1PRmG8RgYhiH1IY7jUMPJj9jIcZBlWSTFCaRUcrlc6BnGIzZ7frvdYP6LMIuhKAqwbVs8WZIkich2EJMQuGq5Hc9WJle+GsqyWHlZljCOI+W+71P8DQt527YU5wMD0zQpX1NVFUX8zRFsnT8TD8MAWZZRfj6fKe6xkOu6LjKePM9/tm1i7wksO+zCOl6Dl0QedhRFonefzZHjhUEBVoW8KPf7/VH7r9S3hK2nOI5p9SjDhuIgCNgrvof6VmRRchYlZ1Fylv8qB/gEQLE7hnJGMmYAAAAASUVORK5CYII=;" vertex="1" parent="1">
          <mxGeometry x="-300" y="-810" width="23" height="42" as="geometry" />
        </mxCell>
        <mxCell id="qXz1hzz-gRdCTcpQRCsA-11" value="" style="shape=image;verticalLabelPosition=bottom;labelBackgroundColor=default;verticalAlign=top;aspect=fixed;imageAspect=0;image=data:image/png,iVBORw0KGgoAAAANSUhEUgAAABgAAABBCAYAAADL9mTHAAAAAXNSR0IArs4c6QAAAARnQU1BAACxjwv8YQUAAAAJcEhZcwAAEnQAABJ0Ad5mH3gAAAGLSURBVFhH7ZgxroJAEECHfwLwBEboaSxsrTwCXkEuohBtjTfwBBbWUlJY2GppRQg34DPzh/8VswyY2PzMSzYzGTY8d1g3BKusgA/yxfFjqEBEBSIqEFGBiApEVCCiApF/KkiSBObzOViWRSMMQ77yzO12+53jeR5XG+Cb3SNZlpXj8bg8nU6UO46Db37lbrfjGX8sFgu6hnPO5zNXn3kRNKlvEgQBV364Xq9Ux7Hf77n6ivgMhsMhxaIoKNas12uK1Q+gdhphkRFsDU6bzWZcKakdWMNWYhvbEAX4LJoCzLFm6vsjvbcp7rDj8QhRFIHv+1xtgUVGmitwXfdpNRKdV2DbNsRxDHmew3a75apMZ8FgMIDVagXL5RJGoxFXO8ArMXI4HKhFOPq0pkZcweVy4Qx6taamc4tw1/RqTQ2vxAjuGpwm/aFMtArwjMGbo+RdWlu02WwoVkcCxXcwCvCsT9OU8ul0SvEdjIL7/c4ZwGQy4aw/+ilBRAUiKhBRgYgKRFQgogKRDwsAvgE8w93o35dzyQAAAABJRU5ErkJggg==;" vertex="1" parent="1">
          <mxGeometry x="-150" y="-827" width="24" height="65" as="geometry" />
        </mxCell>
        <mxCell id="qXz1hzz-gRdCTcpQRCsA-12" value="" style="shape=image;verticalLabelPosition=bottom;labelBackgroundColor=default;verticalAlign=top;aspect=fixed;imageAspect=0;image=data:image/png,iVBORw0KGgoAAAANSUhEUgAAAFQAAAA5CAYAAACoAQxFAAAAAXNSR0IArs4c6QAAAARnQU1BAACxjwv8YQUAAAAJcEhZcwAAEnQAABJ0Ad5mH3gAAAS6SURBVHhe7Zw7TiQ7FIbNXQCIxwpgC4SIEMhBArEBBDEkQIJEAiwAVgAJAQkPiYAAFgABITsAsQRufx7/zGnjeoDc9850+5OOylVlH9u/jx/dzczQRwdXyMY/4VrIRBE0M0XQzBRBM1MEzUwRNDNF0MwUQTNTBM1METQzRdDMFEEzUwTNTBE0M0XQzBRBM1MEzUwRNDNF0Mx4QRcWFtzQ0FAri0nlwQ4PD0OOAYMf6V5fXz/W19f5sa7Stre3yZrk5OTkM9/o6OjH2dlZeDN4eEHF/Px8l4jW7u/vQ64009PTPt8giwldgiJaLKSsSSjyTE1NhbvBpWtTmpmZcZ0oDXfdXFxchNRXrq6u/HV/f99f2/D09OR2dnbc2NiYe3h4CE/7gCDsJ5eXl1+iU/by8hJydcP6y9rZBnwsLy/7/PLbtJz8TXwRFJi6VkhZamNiQ0Ocg4OD8KQdduD6SdDkOXRrayukujk+PnZvb2/h7hfn5+fu/f3dLS0thSftGB4eDqn+Iiko4nSiLtz9BuFub2/D3S+Ojo5cZ8q7ycnJ8GSwSQo6Pj7uVlZWwl03u7u7IeX8ZtJZE93q6mp4UkgKCpubmyHVDQJqVz49PXWd9dafDgqBsJYmqTros0uzGZH+6UHennlJ44+NTbs/HxTqfFMmPi1Qpm5zZCPUBxCM8uTnmkJtsmWa6qgVlA7JUWzs+HSGSn+CFTTuqDWOZDFqF2V0lMOfxE2dRijDe+oC2q1nBE4M7/GPL9VBWdXBuxS1gkLVEQqr+3zfhBWUxvF9gAZHHdV77i16F0cK9yoTQ5lUexEpJShtSg2mbXcqUhsFtY2MTSP3E+IIjXl8fPwULv5Iq6mOD4v1GZPyI2LhNANoQwrVkfLXKChRIwfWUqPaBINDJILtfCyMIKKUp83g1QmqwaHdTb4YMPlpMmBANIsaBQUKxI5SUVWF1iPMrnnyVSUodTTlASIJ8SUaFqOokyFslU/aSR4tQU1Qv5aIVoJSwDamaupUQeMpYxvYRtCmPIiEXzpD5NsBSEE/aIvyYNzHU1vvqtqV4lOjcN+IbYimbRsUGXGZ7wpqp6kiAjFtWZu/DvLZ/hDZ1j9+ef6dfoJfKkK6ETtl2k4F0PSJRbOdj98JRZydEXRcUzteC9sKKvAvX3ZjktjxrIqJTw0MQGtBgcrjHbEOOlzVwTaCau3Wgg++0S18xlS1W/4QUdjgISBSopIn/kDg6w/pnlDXQfsutcFpTYobbQW1QuPPTmPKy0DPYiReHG2aWRiRSr3UgWmgY3++TyHdE6xoMUSvBCDyabAigU5qNsTRYac8RsdlNrIQAf8qr3o4ummpoH3kS0UhYvFO/mKzgyn+V0EF0amDOvm4ck/ZKninCJJIQoMUD4YEtiKRpmwspuA5722ZurbxvKf/1pMvoycmJny6h9X8MfAtXOXXdznge9VOJPl0X/0QV8Hz83NvBYW9vT1/vb6+9td+5u7uzk/FnqM1smqt6gfYxDqa9nYNFayl/P0U3Nzc+KWgn+BvDBYXF93c3Jz7T/8DAv6AbGRkxK2trYUn/cHGxoabnZ31v8OV/9EhMz3flAaNImhmiqCZKYJmpgiamSJoVpz7F7+j77nikmLBAAAAAElFTkSuQmCC;" vertex="1" parent="1">
          <mxGeometry x="-560" y="-710" width="44.21" height="30" as="geometry" />
        </mxCell>
      </root>
    </mxGraphModel>
  </diagram>
</mxfile>
